<mxfile host="app.diagrams.net" modified="2025-01-23T12:00:00.000Z" agent="Claude" etag="ttalkkak-v2.0" version="24.7.17" type="device">
  <diagram name="TtalKkak System Architecture" id="ttalkkak-main">
    <mxGraphModel dx="1654" dy="1169" grid="1" gridSize="10" guides="1" tooltips="1" connect="1" arrows="1" fold="1" page="1" pageScale="1" pageWidth="1654" pageHeight="1169" math="0" shadow="0">
      <root>
        <mxCell id="0" />
        <mxCell id="1" parent="0" />
        
        <mxCell id="background" value="" style="rounded=0;whiteSpace=wrap;html=1;fillColor=#f8fafc;strokeColor=none;" vertex="1" parent="1">
          <mxGeometry x="0" y="0" width="1654" height="1169" as="geometry" />
        </mxCell>
        
        <mxCell id="title" value="TtalKkak AI 기반 프로젝트 관리 시스템" style="text;html=1;strokeColor=none;fillColor=none;align=center;verticalAlign=middle;whiteSpace=wrap;rounded=0;fontSize=24;fontStyle=1;fontColor=#1e293b;" vertex="1" parent="1">
          <mxGeometry x="400" y="30" width="854" height="40" as="geometry" />
        </mxCell>
        
        <mxCell id="subtitle" value="Express 중심의 5계층 마이크로서비스 아키텍처" style="text;html=1;strokeColor=none;fillColor=none;align=center;verticalAlign=middle;whiteSpace=wrap;rounded=0;fontSize=14;fontColor=#64748b;" vertex="1" parent="1">
          <mxGeometry x="527" y="75" width="600" height="25" as="geometry" />
        </mxCell>
        
        <mxCell id="user-layer" value="" style="rounded=1;whiteSpace=wrap;html=1;fillColor=#f3e5ff;strokeColor=#8b5cf6;strokeWidth=2;" vertex="1" parent="1">
          <mxGeometry x="80" y="120" width="1494" height="120" as="geometry" />
        </mxCell>
        
        <mxCell id="user-label" value="사용자 인터페이스 레이어" style="text;html=1;strokeColor=none;fillColor=none;align=left;verticalAlign=top;whiteSpace=wrap;rounded=0;fontSize=16;fontStyle=1;fontColor=#7c3aed;" vertex="1" parent="1">
          <mxGeometry x="100" y="130" width="250" height="25" as="geometry" />
        </mxCell>
        
        <mxCell id="slack-bot" value="Slack Bot&lt;br&gt;• /tk start, /tk help 명령어&lt;br&gt;• 음성/텍스트 입력 처리&lt;br&gt;• 모달 UI 지원&lt;br&gt;• 실시간 이벤트 수신" style="rounded=1;whiteSpace=wrap;html=1;fillColor=#ffffff;strokeColor=#8b5cf6;strokeWidth=2;fontSize=11;align=center;verticalAlign=middle;shadow=1;" vertex="1" parent="1">
          <mxGeometry x="120" y="160" width="240" height="70" as="geometry" />
        </mxCell>
        
        <mxCell id="web-dashboard" value="웹 대시보드&lt;br&gt;• React + TypeScript (포트: 3001)&lt;br&gt;• 칸반 보드 및 실시간 통계&lt;br&gt;• Socket.IO 실시간 업데이트&lt;br&gt;• 프로젝트 관리 인터페이스" style="rounded=1;whiteSpace=wrap;html=1;fillColor=#ffffff;strokeColor=#8b5cf6;strokeWidth=2;fontSize=11;align=center;verticalAlign=middle;shadow=1;" vertex="1" parent="1">
          <mxGeometry x="390" y="160" width="280" height="70" as="geometry" />
        </mxCell>
        
        <mxCell id="chrome-ext" value="Chrome 확장 (향후 계획)&lt;br&gt;• 브라우저 통합&lt;br&gt;• 웹페이지 내 AI 지원&lt;br&gt;• 컨텍스트 기반 업무 생성&lt;br&gt;• 원클릭 프로젝트 연동" style="rounded=1;whiteSpace=wrap;html=1;fillColor=#f8fafc;strokeColor=#94a3b8;strokeWidth=2;fontSize=11;align=center;verticalAlign=middle;fontStyle=2;" vertex="1" parent="1">
          <mxGeometry x="700" y="160" width="250" height="70" as="geometry" />
        </mxCell>
        
        <mxCell id="api-layer" value="" style="rounded=1;whiteSpace=wrap;html=1;fillColor=#fff7ed;strokeColor=#f97316;strokeWidth=2;" vertex="1" parent="1">
          <mxGeometry x="80" y="270" width="1494" height="100" as="geometry" />
        </mxCell>
        
        <mxCell id="api-label" value="API 게이트웨이 레이어 (Express 중심)" style="text;html=1;strokeColor=none;fillColor=none;align=left;verticalAlign=top;whiteSpace=wrap;rounded=0;fontSize=16;fontStyle=1;fontColor=#ea580c;" vertex="1" parent="1">
          <mxGeometry x="100" y="280" width="350" height="25" as="geometry" />
        </mxCell>
        
        <mxCell id="express-server" value="Express 서버 (중앙 허브)&lt;br&gt;• Node.js + TypeScript (포트: 3500) • 멀티테넌트 아키텍처 지원&lt;br&gt;• API Gateway 역할 수행 • 모든 서비스 간 중계 허브&lt;br&gt;• OAuth 2.0 인증 관리 • Socket.IO 실시간 통신 (포트: 8080)" style="rounded=1;whiteSpace=wrap;html=1;fillColor=#ffffff;strokeColor=#f97316;strokeWidth=2;fontSize=11;align=center;verticalAlign=middle;shadow=1;" vertex="1" parent="1">
          <mxGeometry x="150" y="310" width="1350" height="50" as="geometry" />
        </mxCell>
        
        <mxCell id="ai-layer" value="" style="rounded=1;whiteSpace=wrap;html=1;fillColor=#fef2f2;strokeColor=#ef4444;strokeWidth=2;" vertex="1" parent="1">
          <mxGeometry x="80" y="400" width="750" height="180" as="geometry" />
        </mxCell>
        
        <mxCell id="ai-label" value="AI 처리 엔진" style="text;html=1;strokeColor=none;fillColor=none;align=left;verticalAlign=top;whiteSpace=wrap;rounded=0;fontSize=16;fontStyle=1;fontColor=#dc2626;" vertex="1" parent="1">
          <mxGeometry x="100" y="410" width="150" height="25" as="geometry" />
        </mxCell>
        
        <mxCell id="fastapi" value="FastAPI 서버&lt;br&gt;• Python 비동기 처리&lt;br&gt;• 포트: 8000 (개발) / 8001 (Docker)&lt;br&gt;• GPU 클러스터 연동&lt;br&gt;• 고성능 AI 파이프라인" style="rounded=1;whiteSpace=wrap;html=1;fillColor=#ffffff;strokeColor=#dc2626;strokeWidth=2;fontSize=10;align=center;verticalAlign=middle;shadow=1;" vertex="1" parent="1">
          <mxGeometry x="110" y="440" width="170" height="65" as="geometry" />
        </mxCell>
        
        <mxCell id="whisperx" value="WhisperX STT&lt;br&gt;• 음성 → 텍스트 변환&lt;br&gt;• large-v3 모델 사용&lt;br&gt;• 타임스탬프 포함 전사&lt;br&gt;• 다국어 지원" style="rounded=1;whiteSpace=wrap;html=1;fillColor=#ffffff;strokeColor=#dc2626;strokeWidth=2;fontSize=10;align=center;verticalAlign=middle;shadow=1;" vertex="1" parent="1">
          <mxGeometry x="300" y="440" width="170" height="65" as="geometry" />
        </mxCell>
        
        <mxCell id="qwen3" value="Qwen3-32B-AWQ&lt;br&gt;• 2단계 AI 파이프라인&lt;br&gt;• 회의록 → 프로젝트 기획안&lt;br&gt;• 기획안 → Task Master PRD&lt;br&gt;• 업무 분해 및 계층화" style="rounded=1;whiteSpace=wrap;html=1;fillColor=#ffffff;strokeColor=#dc2626;strokeWidth=2;fontSize=10;align=center;verticalAlign=middle;shadow=1;" vertex="1" parent="1">
          <mxGeometry x="490" y="440" width="170" height="65" as="geometry" />
        </mxCell>
        
        <mxCell id="runpod" value="RunPod GPU 클러스터&lt;br&gt;• NVIDIA A100 GPU&lt;br&gt;• 클라우드 네이티브&lt;br&gt;• 자동 스케일링" style="rounded=1;whiteSpace=wrap;html=1;fillColor=#ffffff;strokeColor=#dc2626;strokeWidth=2;fontSize=10;align=center;verticalAlign=middle;shadow=1;" vertex="1" parent="1">
          <mxGeometry x="680" y="440" width="140" height="65" as="geometry" />
        </mxCell>
        
        <mxCell id="ai-performance" value="AI 성능 지표&lt;br&gt;• 평균 처리시간: 15-30초&lt;br&gt;• AI 정확도: 95%+&lt;br&gt;• 동시 처리: 100+ 요청&lt;br&gt;• GPU 활용률: 80%+" style="rounded=1;whiteSpace=wrap;html=1;fillColor=#f0f9ff;strokeColor=#0ea5e9;strokeWidth=2;fontSize=10;align=center;verticalAlign=middle;" vertex="1" parent="1">
          <mxGeometry x="110" y="520" width="710" height="50" as="geometry" />
        </mxCell>
        
        <mxCell id="service-layer" value="" style="rounded=1;whiteSpace=wrap;html=1;fillColor=#f0fdf4;strokeColor=#22c55e;strokeWidth=2;" vertex="1" parent="1">
          <mxGeometry x="860" y="400" width="714" height="180" as="geometry" />
        </mxCell>
        
        <mxCell id="service-label" value="비즈니스 서비스 레이어" style="text;html=1;strokeColor=none;fillColor=none;align=left;verticalAlign=top;whiteSpace=wrap;rounded=0;fontSize=16;fontStyle=1;fontColor=#16a34a;" vertex="1" parent="1">
          <mxGeometry x="880" y="410" width="220" height="25" as="geometry" />
        </mxCell>
        
        <mxCell id="notion-service" value="Notion 연동&lt;br&gt;• @notionhq/client 사용&lt;br&gt;• 페이지 자동 생성&lt;br&gt;• 템플릿 기반 문서화&lt;br&gt;• 워크스페이스 개별 연동" style="rounded=1;whiteSpace=wrap;html=1;fillColor=#ffffff;strokeColor=#16a34a;strokeWidth=2;fontSize=10;align=center;verticalAlign=middle;shadow=1;" vertex="1" parent="1">
          <mxGeometry x="890" y="440" width="160" height="65" as="geometry" />
        </mxCell>
        
        <mxCell id="jira-service" value="JIRA 연동&lt;br&gt;• Atlassian API 사용&lt;br&gt;• Epic/Task 자동 매핑&lt;br&gt;• 프로젝트 자동 생성&lt;br&gt;• 토큰 자동 갱신" style="rounded=1;whiteSpace=wrap;html=1;fillColor=#ffffff;strokeColor=#16a34a;strokeWidth=2;fontSize=10;align=center;verticalAlign=middle;shadow=1;" vertex="1" parent="1">
          <mxGeometry x="1070" y="440" width="160" height="65" as="geometry" />
        </mxCell>
        
        <mxCell id="smart-assigner" value="스마트 배정 알고리즘&lt;br&gt;• 스킬매칭: 40%&lt;br&gt;• 워크로드 분석: 30%&lt;br&gt;• 경험레벨: 15%&lt;br&gt;• 우선순위: 15%" style="rounded=1;whiteSpace=wrap;html=1;fillColor=#ffffff;strokeColor=#16a34a;strokeWidth=2;fontSize=10;align=center;verticalAlign=middle;shadow=1;" vertex="1" parent="1">
          <mxGeometry x="1250" y="440" width="160" height="65" as="geometry" />
        </mxCell>
        
        <mxCell id="task-master" value="Task Master&lt;br&gt;• PRD 자동 생성&lt;br&gt;• 업무 계층 구조 관리&lt;br&gt;• 의존성 분석&lt;br&gt;• 일정 최적화" style="rounded=1;whiteSpace=wrap;html=1;fillColor=#ffffff;strokeColor=#16a34a;strokeWidth=2;fontSize=10;align=center;verticalAlign=middle;shadow=1;" vertex="1" parent="1">
          <mxGeometry x="1430" y="440" width="130" height="65" as="geometry" />
        </mxCell>
        
        <mxCell id="service-integration" value="외부 서비스 통합&lt;br&gt;• OAuth 2.0 보안 인증 • 실시간 동기화&lt;br&gt;• 에러 핸들링 및 재시도 • 멀티테넌트 지원" style="rounded=1;whiteSpace=wrap;html=1;fillColor=#fffbeb;strokeColor=#f59e0b;strokeWidth=2;fontSize=10;align=center;verticalAlign=middle;" vertex="1" parent="1">
          <mxGeometry x="890" y="520" width="670" height="50" as="geometry" />
        </mxCell>
        
        <mxCell id="data-layer" value="" style="rounded=1;whiteSpace=wrap;html=1;fillColor=#eff6ff;strokeColor=#3b82f6;strokeWidth=2;" vertex="1" parent="1">
          <mxGeometry x="80" y="610" width="1494" height="120" as="geometry" />
        </mxCell>
        
        <mxCell id="data-label" value="데이터 저장소 레이어" style="text;html=1;strokeColor=none;fillColor=none;align=left;verticalAlign=top;whiteSpace=wrap;rounded=0;fontSize=16;fontStyle=1;fontColor=#2563eb;" vertex="1" parent="1">
          <mxGeometry x="100" y="620" width="200" height="25" as="geometry" />
        </mxCell>
        
        <mxCell id="postgresql" value="PostgreSQL&lt;br&gt;• 멀티테넌트 데이터베이스&lt;br&gt;• 포트: 5432&lt;br&gt;• ACID 트랜잭션 보장&lt;br&gt;• 복잡한 쿼리 지원" style="rounded=1;whiteSpace=wrap;html=1;fillColor=#ffffff;strokeColor=#2563eb;strokeWidth=2;fontSize=10;align=center;verticalAlign=middle;shadow=1;" vertex="1" parent="1">
          <mxGeometry x="120" y="650" width="200" height="70" as="geometry" />
        </mxCell>
        
        <mxCell id="prisma" value="Prisma ORM&lt;br&gt;• 타입 안전 데이터베이스&lt;br&gt;• 자동 마이그레이션&lt;br&gt;• 쿼리 빌더 및 최적화&lt;br&gt;• TypeScript 완벽 지원" style="rounded=1;whiteSpace=wrap;html=1;fillColor=#ffffff;strokeColor=#2563eb;strokeWidth=2;fontSize=10;align=center;verticalAlign=middle;shadow=1;" vertex="1" parent="1">
          <mxGeometry x="340" y="650" width="200" height="70" as="geometry" />
        </mxCell>
        
        <mxCell id="redis" value="Redis&lt;br&gt;• 인메모리 캐시 저장소&lt;br&gt;• 포트: 6379&lt;br&gt;• 세션 관리&lt;br&gt;• 실시간 데이터 캐싱" style="rounded=1;whiteSpace=wrap;html=1;fillColor=#ffffff;strokeColor=#2563eb;strokeWidth=2;fontSize=10;align=center;verticalAlign=middle;shadow=1;" vertex="1" parent="1">
          <mxGeometry x="560" y="650" width="200" height="70" as="geometry" />
        </mxCell>
        
        <mxCell id="minio" value="MinIO&lt;br&gt;• S3 호환 오브젝트 스토리지&lt;br&gt;• 파일 및 미디어 저장&lt;br&gt;• 음성/이미지 처리&lt;br&gt;• 버전 관리 지원" style="rounded=1;whiteSpace=wrap;html=1;fillColor=#ffffff;strokeColor=#2563eb;strokeWidth=2;fontSize=10;align=center;verticalAlign=middle;shadow=1;" vertex="1" parent="1">
          <mxGeometry x="780" y="650" width="200" height="70" as="geometry" />
        </mxCell>
        
        <mxCell id="docker" value="Docker 컨테이너 환경&lt;br&gt;• 마이크로서비스 아키텍처&lt;br&gt;• 일관된 개발/운영 환경&lt;br&gt;• 자동 스케일링 지원&lt;br&gt;• CI/CD 파이프라인 연동" style="rounded=1;whiteSpace=wrap;html=1;fillColor=#ffffff;strokeColor=#2563eb;strokeWidth=2;fontSize=10;align=center;verticalAlign=middle;shadow=1;" vertex="1" parent="1">
          <mxGeometry x="1000" y="650" width="220" height="70" as="geometry" />
        </mxCell>
        
        <mxCell id="monitoring" value="모니터링 및 로깅&lt;br&gt;• Prometheus + Grafana&lt;br&gt;• ELK Stack (로그 분석)&lt;br&gt;• 실시간 성능 모니터링&lt;br&gt;• 알림 시스템" style="rounded=1;whiteSpace=wrap;html=1;fillColor=#ffffff;strokeColor=#2563eb;strokeWidth=2;fontSize=10;align=center;verticalAlign=middle;shadow=1;" vertex="1" parent="1">
          <mxGeometry x="1240" y="650" width="220" height="70" as="geometry" />
        </mxCell>
        
        <mxCell id="external-layer" value="" style="rounded=1;whiteSpace=wrap;html=1;fillColor=#fef3c7;strokeColor=#f59e0b;strokeWidth=2;" vertex="1" parent="1">
          <mxGeometry x="80" y="760" width="1494" height="80" as="geometry" />
        </mxCell>
        
        <mxCell id="external-label" value="외부 API 통합" style="text;html=1;strokeColor=none;fillColor=none;align=left;verticalAlign=top;whiteSpace=wrap;rounded=0;fontSize=16;fontStyle=1;fontColor=#d97706;" vertex="1" parent="1">
          <mxGeometry x="100" y="770" width="150" height="25" as="geometry" />
        </mxCell>
        
        <mxCell id="slack-api" value="Slack API&lt;br&gt;• @slack/bolt 프레임워크&lt;br&gt;• 이벤트 API 및 웹훅&lt;br&gt;• OAuth 2.0 인증" style="rounded=1;whiteSpace=wrap;html=1;fillColor=#ffffff;strokeColor=#f59e0b;strokeWidth=2;fontSize=10;align=center;verticalAlign=middle;shadow=1;" vertex="1" parent="1">
          <mxGeometry x="120" y="795" width="240" height="40" as="geometry" />
        </mxCell>
        
        <mxCell id="notion-api" value="Notion API&lt;br&gt;• Pages 및 Blocks API&lt;br&gt;• 워크스페이스 연동&lt;br&gt;• 자동 문서 생성" style="rounded=1;whiteSpace=wrap;html=1;fillColor=#ffffff;strokeColor=#f59e0b;strokeWidth=2;fontSize=10;align=center;verticalAlign=middle;shadow=1;" vertex="1" parent="1">
          <mxGeometry x="380" y="795" width="240" height="40" as="geometry" />
        </mxCell>
        
        <mxCell id="jira-api" value="JIRA API&lt;br&gt;• Atlassian REST API v3&lt;br&gt;• 프로젝트 및 이슈 관리&lt;br&gt;• 자동 Epic/Task 생성" style="rounded=1;whiteSpace=wrap;html=1;fillColor=#ffffff;strokeColor=#f59e0b;strokeWidth=2;fontSize=10;align=center;verticalAlign=middle;shadow=1;" vertex="1" parent="1">
          <mxGeometry x="640" y="795" width="240" height="40" as="geometry" />
        </mxCell>
        
        <mxCell id="oauth" value="OAuth 2.0 보안&lt;br&gt;• 토큰 기반 인증&lt;br&gt;• 자동 갱신 메커니즘&lt;br&gt;• 멀티테넌트 격리" style="rounded=1;whiteSpace=wrap;html=1;fillColor=#ffffff;strokeColor=#f59e0b;strokeWidth=2;fontSize=10;align=center;verticalAlign=middle;shadow=1;" vertex="1" parent="1">
          <mxGeometry x="900" y="795" width="240" height="40" as="geometry" />
        </mxCell>
        
        <mxCell id="performance" value="시스템 성능 지표&lt;br&gt;• 처리 성능: 평균 15-30초 • AI 정확도: 95%+ • 동시 사용자: 100+ • 멀티테넌트 지원 • 99.9% 가용성" style="rounded=1;whiteSpace=wrap;html=1;fillColor=#ffffff;strokeColor=#f59e0b;strokeWidth=2;fontSize=10;align=center;verticalAlign=middle;shadow=1;" vertex="1" parent="1">
          <mxGeometry x="1160" y="795" width="400" height="40" as="geometry" />
        </mxCell>
        
        <mxCell id="system-summary" value="시스템 요약 정보&lt;br&gt;포트 구성: 백엔드(3500), 프론트엔드(3001), AI엔진(8000), PostgreSQL(5432), Redis(6379), Socket.IO(8080)&lt;br&gt;주요 워크플로우: Slack 입력 → AI 엔진 2단계 파이프라인 → 스마트 배정 → Notion/JIRA 연동 → 실시간 대시보드 업데이트&lt;br&gt;핵심 특징: 멀티테넌트 아키텍처, AI 기반 자동화, 실시간 협업, 확장 가능한 설계, OAuth 2.0 보안" style="rounded=1;whiteSpace=wrap;html=1;fillColor=#f1f5f9;strokeColor=#475569;strokeWidth=2;fontSize=10;align=center;verticalAlign=middle;" vertex="1" parent="1">
          <mxGeometry x="80" y="870" width="1494" height="60" as="geometry" />
        </mxCell>
        
        <mxCell id="flow1" value="" style="endArrow=classic;html=1;rounded=0;strokeWidth=3;strokeColor=#7c3aed;exitX=0.5;exitY=1;exitDx=0;exitDy=0;entryX=0.2;entryY=0;entryDx=0;entryDy=0;" edge="1" parent="1" source="slack-bot" target="express-server">
          <mxGeometry width="50" height="50" relative="1" as="geometry">
            <mxPoint x="240" y="240" as="sourcePoint" />
            <mxPoint x="290" y="190" as="targetPoint" />
          </mxGeometry>
        </mxCell>
        
        <mxCell id="flow2" value="" style="endArrow=classic;html=1;rounded=0;strokeWidth=3;strokeColor=#7c3aed;exitX=0.5;exitY=1;exitDx=0;exitDy=0;entryX=0.5;entryY=0;entryDx=0;entryDy=0;" edge="1" parent="1" source="web-dashboard" target="express-server">
          <mxGeometry width="50" height="50" relative="1" as="geometry">
            <mxPoint x="530" y="240" as="sourcePoint" />
            <mxPoint x="580" y="190" as="targetPoint" />
          </mxGeometry>
        </mxCell>
        
        <mxCell id="flow3" value="" style="endArrow=classic;html=1;rounded=0;strokeWidth=3;strokeColor=#dc2626;exitX=0.3;exitY=1;exitDx=0;exitDy=0;entryX=0.5;entryY=0;entryDx=0;entryDy=0;" edge="1" parent="1" source="express-server" target="fastapi">
          <mxGeometry width="50" height="50" relative="1" as="geometry">
            <mxPoint x="555" y="370" as="sourcePoint" />
            <mxPoint x="605" y="320" as="targetPoint" />
          </mxGeometry>
        </mxCell>
        
        <mxCell id="flow4" value="" style="endArrow=classic;html=1;rounded=0;strokeWidth=2;strokeColor=#dc2626;exitX=1;exitY=0.5;exitDx=0;exitDy=0;entryX=0;entryY=0.5;entryDx=0;entryDy=0;" edge="1" parent="1" source="fastapi" target="whisperx">
          <mxGeometry width="50" height="50" relative="1" as="geometry">
            <mxPoint x="280" y="473" as="sourcePoint" />
            <mxPoint x="330" y="423" as="targetPoint" />
          </mxGeometry>
        </mxCell>
        
        <mxCell id="flow5" value="" style="endArrow=classic;html=1;rounded=0;strokeWidth=2;strokeColor=#dc2626;exitX=1;exitY=0.5;exitDx=0;exitDy=0;entryX=0;entryY=0.5;entryDx=0;entryDy=0;" edge="1" parent="1" source="whisperx" target="qwen3">
          <mxGeometry width="50" height="50" relative="1" as="geometry">
            <mxPoint x="470" y="473" as="sourcePoint" />
            <mxPoint x="520" y="423" as="targetPoint" />
          </mxGeometry>
        </mxCell>
        
        <mxCell id="flow6" value="" style="endArrow=classic;html=1;rounded=0;strokeWidth=3;strokeColor=#16a34a;exitX=0.7;exitY=1;exitDx=0;exitDy=0;entryX=0.5;entryY=0;entryDx=0;entryDy=0;" edge="1" parent="1" source="express-server" target="notion-service">
          <mxGeometry width="50" height="50" relative="1" as="geometry">
            <mxPoint x="1095" y="370" as="sourcePoint" />
            <mxPoint x="1145" y="320" as="targetPoint" />
          </mxGeometry>
        </mxCell>
        
        <mxCell id="flow7" value="" style="endArrow=classic;html=1;rounded=0;strokeWidth=3;strokeColor=#16a34a;exitX=0.8;exitY=1;exitDx=0;exitDy=0;entryX=0.5;entryY=0;entryDx=0;entryDy=0;" edge="1" parent="1" source="express-server" target="jira-service">
          <mxGeometry width="50" height="50" relative="1" as="geometry">
            <mxPoint x="1230" y="370" as="sourcePoint" />
            <mxPoint x="1280" y="320" as="targetPoint" />
          </mxGeometry>
        </mxCell>
        
        <mxCell id="flow8" value="" style="endArrow=classic;html=1;rounded=0;strokeWidth=3;strokeColor=#2563eb;exitX=0.2;exitY=1;exitDx=0;exitDy=0;entryX=0.5;entryY=0;entryDx=0;entryDy=0;" edge="1" parent="1" source="express-server" target="postgresql">
          <mxGeometry width="50" height="50" relative="1" as="geometry">
            <mxPoint x="420" y="370" as="sourcePoint" />
            <mxPoint x="470" y="320" as="targetPoint" />
          </mxGeometry>
        </mxCell>
        
        <mxCell id="flow9" value="" style="endArrow=classic;html=1;rounded=0;strokeWidth=2;strokeColor=#2563eb;exitX=0.4;exitY=1;exitDx=0;exitDy=0;entryX=0.5;entryY=0;entryDx=0;entryDy=0;" edge="1" parent="1" source="express-server" target="redis">
          <mxGeometry width="50" height="50" relative="1" as="geometry">
            <mxPoint x="690" y="370" as="sourcePoint" />
            <mxPoint x="740" y="320" as="targetPoint" />
          </mxGeometry>
        </mxCell>
        
        <mxCell id="flow10" value="" style="endArrow=classic;startArrow=classic;html=1;rounded=0;strokeWidth=2;strokeColor=#8b5cf6;dashed=1;exitX=0.8;exitY=0;exitDx=0;exitDy=0;entryX=0.8;entryY=1;entryDx=0;entryDy=0;" edge="1" parent="1" source="express-server" target="web-dashboard">
          <mxGeometry width="50" height="50" relative="1" as="geometry">
            <mxPoint x="1230" y="310" as="sourcePoint" />
            <mxPoint x="1280" y="260" as="targetPoint" />
          </mxGeometry>
        </mxCell>
        
        <mxCell id="external-flow1" value="" style="endArrow=classic;html=1;rounded=0;strokeWidth=2;strokeColor=#d97706;dashed=1;exitX=0.5;exitY=1;exitDx=0;exitDy=0;entryX=0.5;entryY=0;entryDx=0;entryDy=0;" edge="1" parent="1" source="slack-bot" target="slack-api">
          <mxGeometry width="50" height="50" relative="1" as="geometry">
            <mxPoint x="240" y="240" as="sourcePoint" />
            <mxPoint x="290" y="190" as="targetPoint" />
          </mxGeometry>
        </mxCell>
        
        <mxCell id="external-flow2" value="" style="endArrow=classic;html=1;rounded=0;strokeWidth=2;strokeColor=#d97706;dashed=1;exitX=0.5;exitY=1;exitDx=0;exitDy=0;entryX=0.5;entryY=0;entryDx=0;entryDy=0;" edge="1" parent="1" source="notion-service" target="notion-api">
          <mxGeometry width="50" height="50" relative="1" as="geometry">
            <mxPoint x="970" y="515" as="sourcePoint" />
            <mxPoint x="1020" y="465" as="targetPoint" />
          </mxGeometry>
        </mxCell>
        
        <mxCell id="external-flow3" value="" style="endArrow=classic;html=1;rounded=0;strokeWidth=2;strokeColor=#d97706;dashed=1;exitX=0.5;exitY=1;exitDx=0;exitDy=0;entryX=0.5;entryY=0;entryDx=0;entryDy=0;" edge="1" parent="1" source="jira-service" target="jira-api">
          <mxGeometry width="50" height="50" relative="1" as="geometry">
            <mxPoint x="1150" y="515" as="sourcePoint" />
            <mxPoint x="1200" y="465" as="targetPoint" />
          </mxGeometry>
        </mxCell>
        
      </root>
    </mxGraphModel>
  </diagram>
</mxfile>